<svg width="105" height="27" viewBox="0 0 105 27" fill="none" xmlns="http://www.w3.org/2000/svg">
<path d="M6.05492 23.9716C7.02263 23.6951 8.18389 23.6674 9.98106 23.6674H22.1742L21.7318 25.1605H9.64928C6.69084 25.1605 6.11022 25.2158 3.64947 25.6305C3.73241 25.0499 3.78771 24.0269 3.78771 23.4462V20.6813C3.78771 20.2113 3.62182 19.9901 2.59881 19.6307L5.19781 18.5524C5.55724 18.3865 6.05492 18.4694 6.05492 20.156V23.9716ZM8.54332 10.8936C4.47893 10.8936 1.93524 9.06881 1.93524 6.16567C1.93524 3.26254 4.47893 1.43772 8.54332 1.43772C12.6077 1.43772 15.1514 3.26254 15.1514 6.16567C15.1514 9.06881 12.6077 10.8936 8.54332 10.8936ZM8.54332 9.45589C11.3359 9.45589 12.9395 8.26699 12.9395 6.16567C12.9395 4.06436 11.3359 2.87546 8.54332 2.87546C5.75078 2.87546 4.14715 4.06436 4.14715 6.16567C4.14715 8.26699 5.75078 9.45589 8.54332 9.45589ZM20.9577 20.4325L18.8011 21.262V17.1699H13.1883L13.6307 15.7875H18.8011V2.29483C18.8011 1.8248 18.6075 1.60361 17.6122 1.24417L20.1282 0.165867C20.46 0.0276226 20.9577 0.0829196 20.9577 1.7695V20.4325ZM1.87994 14.1009C0.221006 14.1009 -0.000185094 13.5203 0.276304 13.1885L1.49285 11.806C1.87994 12.4973 2.23937 12.6079 2.79235 12.6079H15.0132C15.7044 12.6079 16.4786 12.5526 17.1698 12.4143L16.6444 14.1009H9.56633V18.4418L7.35442 19.2989V14.1009H1.87994ZM28.3995 18.8842L29.0355 17.3635H46.1501C46.0119 17.9994 45.9013 18.6353 45.9013 19.2436V23.7227C45.9013 24.1927 46.0948 24.4139 47.0902 24.7734L44.5465 26.1005C44.4082 26.1558 44.1871 26.2111 44.0765 26.0176C43.8829 25.7411 43.6894 25.4093 43.6894 24.5798V18.8842H28.3995ZM32.7128 4.03671C32.7681 3.73257 32.1321 3.15195 31.4133 3.09665L34.2058 2.07364C34.8417 1.85245 34.98 2.10129 34.6205 3.67727L34.2335 5.47445L34.1229 6.35922C33.6528 10.2854 35.3671 12.6355 39.072 12.6355C40.0121 12.6355 40.565 12.5802 41.2286 12.442L40.6756 14.488C40.178 14.6262 39.3485 14.6539 38.3255 14.6262C35.1735 14.5433 33.404 12.5249 33.0722 9.37295C31.4686 13.4097 29.0631 15.3175 25.5241 15.3175L26.1323 13.0779C29.2567 12.9673 31.358 10.8383 32.3257 5.97213L32.7128 4.03671ZM46.1225 15.1239L43.9106 15.9534V8.23934H38.0766L38.519 6.7463H43.9106V2.29483C43.9106 1.8248 43.717 1.60361 42.7217 1.24417L45.293 0.165867C45.6248 0.0276226 46.1225 0.0829196 46.1225 1.7695V15.1239ZM57.7897 4.50674C57.7897 3.62198 57.6238 2.9584 57.4855 2.29483H70.5081L70.0658 3.84317H59.9463V13.6309C60.9693 12.912 62.0752 12.6908 63.8448 12.6908H69.9275C70.6187 12.6908 71.3929 12.5802 72.0841 12.4973L71.5588 14.1839H63.6512C61.1628 14.1839 58.9786 14.5709 57.5132 15.4004C57.7067 14.6815 57.7897 13.465 57.7897 12.5249V4.50674ZM76.2591 19.3542L74.0472 20.1837V2.29483C74.0472 1.8248 73.8537 1.60361 72.8583 1.24417L75.402 0.165867C75.7614 -2.59707e-05 76.2591 0.0829196 76.2591 1.7695V9.59414H80.2405L79.8535 10.9766H76.2591V19.3542ZM62.1305 23.9716C63.0982 23.6951 64.2595 23.6674 66.0567 23.6674H77.5863L77.1439 25.1605H65.7249C62.7665 25.1605 62.1858 25.2158 59.7251 25.6305C59.808 25.0499 59.8633 24.0269 59.8633 23.4462V19.5201C59.8633 19.0501 59.6974 18.8289 58.6744 18.4694L61.2734 17.3911C61.6328 17.2252 62.1305 17.3082 62.1305 18.9948V23.9716ZM102.281 11.7784C101.645 11.8337 101.12 11.8613 100.622 11.8613C97.2489 11.8613 95.5347 10.1471 95.5071 7.13339C91.6086 10.7554 88.4566 11.9996 83.1203 12.0549L83.7563 9.95357C87.6824 10.0642 90.5855 9.29 93.9034 6.49746L97.0277 3.84317C97.3042 3.59433 97.5807 3.45608 97.8019 3.34549H86.5488C85.9129 3.34549 85.2217 3.48373 84.6687 3.73257L85.4982 1.52066H101.645C101.203 1.8801 99.8756 3.069 99.3226 3.56668L96.4471 6.27627C96.5577 9.01351 98.5208 9.98122 101.313 9.98122C101.894 9.98122 102.502 9.95357 102.862 9.89827L102.281 11.7784ZM93.7928 23.7227C93.7928 24.1927 93.9864 24.4139 95.0094 24.7734L92.4104 26.1005C92.2998 26.1558 92.0786 26.2111 91.9403 26.0176C91.7745 25.7411 91.5809 25.4093 91.5809 24.5798V16.6446H82.9268C81.2679 16.6446 81.0743 16.064 81.3232 15.7875L82.9268 14.1009C83.2862 14.8751 83.5351 15.041 84.0881 15.041H104.023L103.581 16.6446H93.7928V23.7227Z" fill="#707070"/>
</svg>
