<svg width="38" height="10" viewBox="0 0 38 10" fill="none" xmlns="http://www.w3.org/2000/svg">
<path d="M2.18977 8.66999C2.53977 8.56999 2.95977 8.55999 3.60977 8.55999H8.01977L7.85977 9.09999H3.48977C2.41977 9.09999 2.20977 9.11999 1.31977 9.26999C1.34977 9.05999 1.36977 8.68999 1.36977 8.47999V7.47999C1.36977 7.30999 1.30977 7.22999 0.939766 7.09999L1.87977 6.70999C2.00977 6.64999 2.18977 6.67999 2.18977 7.28999V8.66999ZM3.08977 3.93999C1.61977 3.93999 0.699766 3.27999 0.699766 2.22999C0.699766 1.17999 1.61977 0.519991 3.08977 0.519991C4.55977 0.519991 5.47977 1.17999 5.47977 2.22999C5.47977 3.27999 4.55977 3.93999 3.08977 3.93999ZM3.08977 3.41999C4.09977 3.41999 4.67977 2.98999 4.67977 2.22999C4.67977 1.46999 4.09977 1.03999 3.08977 1.03999C2.07977 1.03999 1.49977 1.46999 1.49977 2.22999C1.49977 2.98999 2.07977 3.41999 3.08977 3.41999ZM7.57977 7.38999L6.79977 7.68999V6.20999H4.76977L4.92977 5.70999H6.79977V0.829991C6.79977 0.659991 6.72977 0.579991 6.36977 0.449991L7.27977 0.0599911C7.39977 0.00999117 7.57977 0.0299909 7.57977 0.639991V7.38999ZM0.679766 5.09999C0.0797657 5.09999 -0.000234351 4.88999 0.0997657 4.76999L0.539766 4.26999C0.679766 4.51999 0.809766 4.55999 1.00977 4.55999H5.42977C5.67977 4.55999 5.95977 4.53999 6.20977 4.48999L6.01977 5.09999H3.45977V6.66999L2.65977 6.97999V5.09999H0.679766ZM10.2713 6.82999L10.5013 6.27999H16.6913C16.6413 6.50999 16.6013 6.73999 16.6013 6.95999V8.57999C16.6013 8.74999 16.6713 8.82999 17.0313 8.95999L16.1113 9.43999C16.0613 9.45999 15.9813 9.47999 15.9413 9.40999C15.8713 9.30999 15.8013 9.18999 15.8013 8.88999V6.82999H10.2713ZM11.8313 1.45999C11.8513 1.34999 11.6213 1.13999 11.3613 1.11999L12.3713 0.749991C12.6013 0.669991 12.6513 0.759991 12.5213 1.32999L12.3813 1.97999L12.3413 2.29999C12.1713 3.71999 12.7913 4.56999 14.1313 4.56999C14.4713 4.56999 14.6713 4.54999 14.9113 4.49999L14.7113 5.23999C14.5313 5.28999 14.2313 5.29999 13.8613 5.28999C12.7213 5.25999 12.0813 4.52999 11.9613 3.38999C11.3813 4.84999 10.5113 5.53999 9.23133 5.53999L9.45133 4.72999C10.5813 4.68999 11.3413 3.91999 11.6913 2.15999L11.8313 1.45999ZM16.6813 5.46999L15.8813 5.76999V2.97999H13.7713L13.9313 2.43999H15.8813V0.829991C15.8813 0.659991 15.8113 0.579991 15.4513 0.449991L16.3813 0.0599911C16.5013 0.00999117 16.6813 0.0299909 16.6813 0.639991V5.46999ZM20.9011 1.62999C20.9011 1.30999 20.8411 1.06999 20.7911 0.829991H25.5011L25.3411 1.38999H21.6811V4.92999C22.0511 4.66999 22.4511 4.58999 23.0911 4.58999H25.2911C25.5411 4.58999 25.8211 4.54999 26.0711 4.51999L25.8811 5.12999H23.0211C22.1211 5.12999 21.3311 5.26999 20.8011 5.56999C20.8711 5.30999 20.9011 4.86999 20.9011 4.52999V1.62999ZM27.5811 6.99999L26.7811 7.29999V0.829991C26.7811 0.659991 26.7111 0.579991 26.3511 0.449991L27.2711 0.0599911C27.4011 -8.70228e-06 27.5811 0.0299909 27.5811 0.639991V3.46999H29.0211L28.8811 3.96999H27.5811V6.99999ZM22.4711 8.66999C22.8211 8.56999 23.2411 8.55999 23.8911 8.55999H28.0611L27.9011 9.09999H23.7711C22.7011 9.09999 22.4911 9.11999 21.6011 9.26999C21.6311 9.05999 21.6511 8.68999 21.6511 8.47999V7.05999C21.6511 6.88999 21.5911 6.80999 21.2211 6.67999L22.1611 6.28999C22.2911 6.22999 22.4711 6.25999 22.4711 6.86999V8.66999ZM36.9927 4.25999C36.7627 4.27999 36.5727 4.28999 36.3927 4.28999C35.1727 4.28999 34.5527 3.66999 34.5427 2.57999C33.1327 3.88999 31.9927 4.33999 30.0627 4.35999L30.2927 3.59999C31.7127 3.63999 32.7627 3.35999 33.9627 2.34999L35.0927 1.38999C35.1927 1.29999 35.2927 1.24999 35.3727 1.20999H31.3027C31.0727 1.20999 30.8227 1.25999 30.6227 1.34999L30.9227 0.549991H36.7627C36.6027 0.679991 36.1227 1.10999 35.9227 1.28999L34.8827 2.26999C34.9227 3.25999 35.6327 3.60999 36.6427 3.60999C36.8527 3.60999 37.0727 3.59999 37.2027 3.57999L36.9927 4.25999ZM33.9227 8.57999C33.9227 8.74999 33.9927 8.82999 34.3627 8.95999L33.4227 9.43999C33.3827 9.45999 33.3027 9.47999 33.2527 9.40999C33.1927 9.30999 33.1227 9.18999 33.1227 8.88999V6.01999H29.9927C29.3927 6.01999 29.3227 5.80999 29.4127 5.70999L29.9927 5.09999C30.1227 5.37999 30.2127 5.43999 30.4127 5.43999H37.6227L37.4627 6.01999H33.9227V8.57999Z" fill="black"/>
</svg>
