<svg width="192" height="27" viewBox="0 0 192 27" fill="none" xmlns="http://www.w3.org/2000/svg">
<path d="M21.981 16.9211L19.9626 17.6953V9.12411H16.9765V15.7598L14.9858 16.5064V2.9584C14.9858 2.35013 14.737 2.10129 13.9352 1.8248L16.1194 0.829441C16.6447 0.580601 16.9765 1.18887 16.9765 2.43307V7.74166H19.9626V2.35013C19.9626 1.74185 19.6861 1.46536 18.8843 1.18887L21.1239 0.221165C21.6492 -2.68228e-05 21.981 0.608249 21.981 1.8248V16.9211ZM7.24413 16.0363C3.84332 16.0363 1.60376 14.2391 1.60376 11.5296C1.60376 8.84762 3.84332 7.05044 7.24413 7.05044C10.5896 7.05044 12.8292 8.81997 12.8292 11.5296C12.8292 14.2391 10.5896 16.0363 7.24413 16.0363ZM7.24413 14.6815C9.31779 14.6815 10.6173 13.465 10.6173 11.5296C10.6173 9.56649 9.31779 8.37759 7.24413 8.37759C5.11516 8.37759 3.81567 9.56649 3.81567 11.5296C3.81567 13.465 5.11516 14.6815 7.24413 14.6815ZM0.000120395 5.91684L0.442503 4.47909H13.9628L13.5481 5.91684H0.000120395ZM6.52526 2.93076C3.70507 2.93076 2.57147 2.62662 2.73736 1.96305L3.95391 0.55295C4.45159 1.10593 5.75109 1.43771 7.46532 1.43771H11.8338L11.3362 2.93076H6.52526ZM13.2163 26.2111C7.63121 26.2111 4.2304 24.5522 4.2304 21.8426C4.2304 19.0777 7.63121 17.4741 13.2163 17.4741C18.8014 17.4741 22.2022 19.0777 22.2022 21.8426C22.2022 24.5522 18.8014 26.2111 13.2163 26.2111ZM13.2163 24.7181C17.5848 24.7181 19.9073 23.6951 19.9073 21.8426C19.9073 19.9348 17.5848 18.9671 13.2163 18.9671C8.84776 18.9671 6.52526 19.9348 6.52526 21.8426C6.52526 23.6951 8.84776 24.7181 13.2163 24.7181ZM30.7776 24.0269C31.7454 23.7504 32.9066 23.7227 34.7038 23.7227H46.1228L45.6804 25.2158H34.372C31.4136 25.2158 30.8329 25.2711 28.3722 25.6858C28.4551 25.1052 28.5104 24.0822 28.5104 23.5015V20.3496C28.5104 19.8795 28.3445 19.6583 27.3215 19.2989L29.9205 18.2206C30.28 18.0547 30.7776 18.1376 30.7776 19.8242V24.0269ZM36.5839 11.8337C31.1371 11.8337 27.8469 9.84298 27.8469 6.46981C27.8469 3.09665 31.1371 1.10593 36.5839 1.10593C42.0307 1.10593 45.321 3.09665 45.321 6.46981C45.321 9.84298 42.0307 11.8337 36.5839 11.8337ZM36.5839 10.2854C40.7036 10.2854 42.9985 8.93056 42.9985 6.46981C42.9985 3.98141 40.7036 2.65427 36.5839 2.65427C32.4642 2.65427 30.1694 3.98141 30.1694 6.46981C30.1694 8.93056 32.4642 10.2854 36.5839 10.2854ZM27.0174 15.4281C25.3585 15.4281 25.1649 14.8751 25.4138 14.5709L26.6303 13.0502C27.0174 13.7415 27.3768 13.8797 27.9298 13.8797H47.8923L47.4499 15.4281H38.2428V19.9901L36.0309 20.8472V15.4281H27.0174ZM71.0387 23.778C71.0387 24.248 71.2323 24.4692 72.2276 24.8287L69.6563 26.1558C69.5457 26.2111 69.3245 26.2664 69.1863 26.0729C68.9927 25.7964 68.8268 25.4646 68.8268 24.6351V2.35013C68.8268 1.8801 68.6333 1.65891 67.6379 1.29947L70.2093 0.221165C70.5411 0.0829204 71.0387 0.138217 71.0387 1.8248V23.778ZM51.7951 21.5385C50.1362 21.5385 49.8873 20.9302 50.1915 20.5431L51.408 19.1607C51.7951 19.8519 52.1546 19.9625 52.7075 19.9625L65.3154 19.9348C66.0066 19.9348 66.7808 19.8795 67.472 19.7413L66.9467 21.5108L51.7951 21.5385ZM58.4032 16.064C54.4218 16.064 51.5463 13.382 51.5463 9.04116C51.5463 4.70028 54.4218 2.01834 58.4032 2.01834C62.3846 2.01834 65.2601 4.70028 65.2601 9.04116C65.2601 13.382 62.3846 16.064 58.4032 16.064ZM58.4032 14.6815C61.1128 14.6815 62.9929 12.6632 62.9929 9.04116C62.9929 5.41916 61.1128 3.40079 58.4032 3.40079C55.6936 3.40079 53.8135 5.41916 53.8135 9.04116C53.8135 12.6632 55.6936 14.6815 58.4032 14.6815ZM84.6413 1.60361H101.065L100.622 3.15195H87.1574V10.3683C88.0145 10.1195 89.0375 10.0365 91.0835 10.0365H101.535L101.092 11.5849H90.807C87.9039 11.5849 86.4938 11.7507 84.7796 12.0549C84.8625 11.5849 84.9455 10.5895 84.9455 9.87063V3.78787C84.9455 3.069 84.8625 2.43307 84.6413 1.60361ZM93.9867 23.778C93.9867 24.248 94.1802 24.4692 95.2032 24.8287L92.6042 26.1558C92.4936 26.2111 92.2724 26.2664 92.1342 26.0729C91.9683 25.7964 91.7748 25.4646 91.7748 24.6351V16.6999H83.1207C81.4617 16.6999 81.2682 16.1193 81.517 15.8428L83.1207 14.1562C83.4801 14.9304 83.7289 15.0963 84.2819 15.0963H104.217L103.774 16.6999H93.9867V23.778ZM133.441 9.92592C132.833 9.98122 132.335 10.0089 131.837 10.0089C128.602 10.0089 126.833 8.76467 126.556 6.46981C122.962 9.51119 119.921 10.0918 114.612 10.1471L115.248 8.15639C118.842 8.26699 122.133 8.1011 125.119 5.77859L128.022 3.51138C128.464 3.1796 128.851 2.98605 129.155 2.90311H118.041C117.405 2.90311 116.713 3.04135 116.16 3.29019L116.99 1.18887H132.694L130.317 3.23489L127.469 5.69564C127.939 7.65871 129.902 8.26699 132.529 8.26699C133.109 8.26699 133.662 8.23934 134.022 8.18404L133.441 9.92592ZM115.276 17.8059L115.912 16.3128H122.907V13.8797H114.446C112.787 13.8797 112.594 13.3267 112.843 13.0226L114.059 11.5019C114.446 12.1931 114.806 12.3314 115.359 12.3314H135.321L134.879 13.8797H125.119V16.3128H132.473C132.252 17.0593 132.224 17.7782 132.224 18.1929V21.6214H118.068V24.4692C118.87 24.2204 119.81 24.1375 122.022 24.1375H134.077L133.635 25.6305H121.745C118.787 25.6305 117.93 25.7134 115.69 26.2111C115.773 25.6028 115.856 24.5798 115.856 24.0269V22.0085C115.856 21.4002 115.69 20.7643 115.414 20.239H130.013V17.8059H115.276ZM145.412 4.56204C145.412 3.67728 145.246 3.0137 145.108 2.35013H158.131L157.688 3.89847H147.569V13.6862C148.592 12.9673 149.698 12.7461 151.467 12.7461H157.55C158.241 12.7461 159.016 12.6355 159.707 12.5526L159.181 14.2391H151.274C148.785 14.2391 146.601 14.6262 145.136 15.4557C145.329 14.7368 145.412 13.5203 145.412 12.5802V4.56204ZM163.882 19.4095L161.67 20.239V2.35013C161.67 1.8801 161.476 1.65891 160.481 1.29947L163.025 0.221165C163.384 0.0552719 163.882 0.138217 163.882 1.8248V9.64943H167.863L167.476 11.0319H163.882V19.4095ZM149.753 24.0269C150.721 23.7504 151.882 23.7227 153.679 23.7227H165.209L164.767 25.2158H153.348C150.389 25.2158 149.808 25.2711 147.348 25.6858C147.431 25.1052 147.486 24.0822 147.486 23.5015V19.5754C147.486 19.1054 147.32 18.8842 146.297 18.5247L148.896 17.4464C149.255 17.2805 149.753 17.3635 149.753 19.0501V24.0269ZM189.904 11.8337C189.268 11.889 188.742 11.9166 188.245 11.9166C184.872 11.9166 183.157 10.2024 183.13 7.18868C179.231 10.8107 176.079 12.0549 170.743 12.1102L171.379 10.0089C175.305 10.1195 178.208 9.3453 181.526 6.55276L184.65 3.89847C184.927 3.64963 185.203 3.51138 185.425 3.40079H174.171C173.536 3.40079 172.844 3.53903 172.291 3.78787L173.121 1.57596H189.268C188.825 1.93539 187.498 3.1243 186.945 3.62198L184.07 6.33157C184.18 9.06881 186.143 10.0365 188.936 10.0365C189.517 10.0365 190.125 10.0089 190.484 9.95357L189.904 11.8337ZM181.415 23.778C181.415 24.248 181.609 24.4692 182.632 24.8287L180.033 26.1558C179.922 26.2111 179.701 26.2664 179.563 26.0729C179.397 25.7964 179.204 25.4646 179.204 24.6351V16.6999H170.549C168.891 16.6999 168.697 16.1193 168.946 15.8428L170.549 14.1562C170.909 14.9304 171.158 15.0963 171.711 15.0963H191.646L191.203 16.6999H181.415V23.778Z" fill="black"/>
</svg>
