<svg width="70" height="10" viewBox="0 0 70 10" fill="none" xmlns="http://www.w3.org/2000/svg">
<path d="M7.95008 6.12001L7.22008 6.40001V3.30001H6.14008V5.70001L5.42008 5.97001V1.07001C5.42008 0.850011 5.33008 0.760011 5.04008 0.66001L5.83008 0.300011C6.02008 0.210011 6.14008 0.43001 6.14008 0.88001V2.80001H7.22008V0.850011C7.22008 0.630011 7.12008 0.530011 6.83008 0.43001L7.64008 0.0800107C7.83008 1.04904e-05 7.95008 0.220011 7.95008 0.66001V6.12001ZM2.62008 5.80001C1.39008 5.80001 0.580078 5.15001 0.580078 4.17001C0.580078 3.20001 1.39008 2.55001 2.62008 2.55001C3.83008 2.55001 4.64008 3.19001 4.64008 4.17001C4.64008 5.15001 3.83008 5.80001 2.62008 5.80001ZM2.62008 5.31001C3.37008 5.31001 3.84008 4.87001 3.84008 4.17001C3.84008 3.46001 3.37008 3.03001 2.62008 3.03001C1.85008 3.03001 1.38008 3.46001 1.38008 4.17001C1.38008 4.87001 1.85008 5.31001 2.62008 5.31001ZM7.81566e-05 2.14001L0.160078 1.62001H5.05008L4.90008 2.14001H7.81566e-05ZM2.36008 1.06001C1.34008 1.06001 0.930078 0.950011 0.990078 0.710011L1.43008 0.20001C1.61008 0.400011 2.08008 0.52001 2.70008 0.52001H4.28008L4.10008 1.06001H2.36008ZM4.78008 9.48001C2.76008 9.48001 1.53008 8.88001 1.53008 7.90001C1.53008 6.90001 2.76008 6.32001 4.78008 6.32001C6.80008 6.32001 8.03008 6.90001 8.03008 7.90001C8.03008 8.88001 6.80008 9.48001 4.78008 9.48001ZM4.78008 8.94001C6.36008 8.94001 7.20008 8.57001 7.20008 7.90001C7.20008 7.21001 6.36008 6.86001 4.78008 6.86001C3.20008 6.86001 2.36008 7.21001 2.36008 7.90001C2.36008 8.57001 3.20008 8.94001 4.78008 8.94001ZM11.1316 8.69001C11.4816 8.59001 11.9016 8.58001 12.5516 8.58001H16.6816L16.5216 9.12001H12.4316C11.3616 9.12001 11.1516 9.14001 10.2616 9.29001C10.2916 9.08001 10.3116 8.71001 10.3116 8.50001V7.36001C10.3116 7.19001 10.2516 7.11001 9.88164 6.98001L10.8216 6.59001C10.9516 6.53001 11.1316 6.56001 11.1316 7.17001V8.69001ZM13.2316 4.28001C11.2616 4.28001 10.0716 3.56001 10.0716 2.34001C10.0716 1.12001 11.2616 0.400011 13.2316 0.400011C15.2016 0.400011 16.3916 1.12001 16.3916 2.34001C16.3916 3.56001 15.2016 4.28001 13.2316 4.28001ZM13.2316 3.72001C14.7216 3.72001 15.5516 3.23001 15.5516 2.34001C15.5516 1.44001 14.7216 0.960011 13.2316 0.960011C11.7416 0.960011 10.9116 1.44001 10.9116 2.34001C10.9116 3.23001 11.7416 3.72001 13.2316 3.72001ZM9.77164 5.58001C9.17164 5.58001 9.10164 5.38001 9.19164 5.27001L9.63164 4.72001C9.77164 4.97001 9.90164 5.02001 10.1016 5.02001H17.3216L17.1616 5.58001H13.8316V7.23001L13.0316 7.54001V5.58001H9.77164ZM25.6932 8.60001C25.6932 8.77001 25.7632 8.85001 26.1232 8.98001L25.1932 9.46001C25.1532 9.48001 25.0732 9.50001 25.0232 9.43001C24.9532 9.33001 24.8932 9.21001 24.8932 8.91001V0.850011C24.8932 0.680011 24.8232 0.600011 24.4632 0.47001L25.3932 0.0800107C25.5132 0.0300107 25.6932 0.0500104 25.6932 0.66001V8.60001ZM18.7332 7.79001C18.1332 7.79001 18.0432 7.57001 18.1532 7.43001L18.5932 6.93001C18.7332 7.18001 18.8632 7.22001 19.0632 7.22001L23.6232 7.21001C23.8732 7.21001 24.1532 7.19001 24.4032 7.14001L24.2132 7.78001L18.7332 7.79001ZM21.1232 5.81001C19.6832 5.81001 18.6432 4.84001 18.6432 3.27001C18.6432 1.70001 19.6832 0.730011 21.1232 0.730011C22.5632 0.730011 23.6032 1.70001 23.6032 3.27001C23.6032 4.84001 22.5632 5.81001 21.1232 5.81001ZM21.1232 5.31001C22.1032 5.31001 22.7832 4.58001 22.7832 3.27001C22.7832 1.96001 22.1032 1.23001 21.1232 1.23001C20.1432 1.23001 19.4632 1.96001 19.4632 3.27001C19.4632 4.58001 20.1432 5.31001 21.1232 5.31001ZM30.613 0.580011H36.553L36.393 1.14001H31.523V3.75001C31.833 3.66001 32.203 3.63001 32.943 3.63001H36.723L36.563 4.19001H32.843C31.793 4.19001 31.283 4.25001 30.663 4.36001C30.693 4.19001 30.723 3.83001 30.723 3.57001V1.37001C30.723 1.11001 30.693 0.88001 30.613 0.580011ZM33.993 8.60001C33.993 8.77001 34.063 8.85001 34.433 8.98001L33.493 9.46001C33.453 9.48001 33.373 9.50001 33.323 9.43001C33.263 9.33001 33.193 9.21001 33.193 8.91001V6.04001H30.063C29.463 6.04001 29.393 5.83001 29.483 5.73001L30.063 5.12001C30.193 5.40001 30.283 5.46001 30.483 5.46001H37.693L37.533 6.04001H33.993V8.60001ZM48.2627 3.59001C48.0427 3.61001 47.8627 3.62001 47.6827 3.62001C46.5127 3.62001 45.8727 3.17001 45.7727 2.34001C44.4727 3.44001 43.3727 3.65001 41.4527 3.67001L41.6827 2.95001C42.9827 2.99001 44.1727 2.93001 45.2527 2.09001L46.3027 1.27001C46.4627 1.15001 46.6027 1.08001 46.7127 1.05001H42.6927C42.4627 1.05001 42.2127 1.10001 42.0127 1.19001L42.3127 0.43001H47.9927L47.1327 1.17001L46.1027 2.06001C46.2727 2.77001 46.9827 2.99001 47.9327 2.99001C48.1427 2.99001 48.3427 2.98001 48.4727 2.96001L48.2627 3.59001ZM41.6927 6.44001L41.9227 5.90001H44.4527V5.02001H41.3927C40.7927 5.02001 40.7227 4.82001 40.8127 4.71001L41.2527 4.16001C41.3927 4.41001 41.5227 4.46001 41.7227 4.46001H48.9427L48.7827 5.02001H45.2527V5.90001H47.9127C47.8327 6.17001 47.8227 6.43001 47.8227 6.58001V7.82001H42.7027V8.85001C42.9927 8.76001 43.3327 8.73001 44.1327 8.73001H48.4927L48.3327 9.27001H44.0327C42.9627 9.27001 42.6527 9.30001 41.8427 9.48001C41.8727 9.26001 41.9027 8.89001 41.9027 8.69001V7.96001C41.9027 7.74001 41.8427 7.51001 41.7427 7.32001H47.0227V6.44001H41.6927ZM52.5925 1.65001C52.5925 1.33001 52.5325 1.09001 52.4825 0.850011H57.1925L57.0325 1.41001H53.3725V4.95001C53.7425 4.69001 54.1425 4.61001 54.7825 4.61001H56.9825C57.2325 4.61001 57.5125 4.57001 57.7625 4.54001L57.5725 5.15001H54.7125C53.8125 5.15001 53.0225 5.29001 52.4925 5.59001C52.5625 5.33001 52.5925 4.89001 52.5925 4.55001V1.65001ZM59.2725 7.02001L58.4725 7.32001V0.850011C58.4725 0.680011 58.4025 0.600011 58.0425 0.47001L58.9625 0.0800107C59.0925 0.0200108 59.2725 0.0500104 59.2725 0.66001V3.49001H60.7125L60.5725 3.99001H59.2725V7.02001ZM54.1625 8.69001C54.5125 8.59001 54.9325 8.58001 55.5825 8.58001H59.7525L59.5925 9.12001H55.4625C54.3925 9.12001 54.1825 9.14001 53.2925 9.29001C53.3225 9.08001 53.3425 8.71001 53.3425 8.50001V7.08001C53.3425 6.91001 53.2825 6.83001 52.9125 6.70001L53.8525 6.31001C53.9825 6.25001 54.1625 6.28001 54.1625 6.89001V8.69001ZM68.6841 4.28001C68.4541 4.30001 68.2641 4.31001 68.0841 4.31001C66.8641 4.31001 66.2441 3.69001 66.2341 2.60001C64.8241 3.91001 63.6841 4.36001 61.7541 4.38001L61.9841 3.62001C63.4041 3.66001 64.4541 3.38001 65.6541 2.37001L66.7841 1.41001C66.8841 1.32001 66.9841 1.27001 67.0641 1.23001H62.9941C62.7641 1.23001 62.5141 1.28001 62.3141 1.37001L62.6141 0.570011H68.4541C68.2941 0.70001 67.8141 1.13001 67.6141 1.31001L66.5741 2.29001C66.6141 3.28001 67.3241 3.63001 68.3341 3.63001C68.5441 3.63001 68.7641 3.62001 68.8941 3.60001L68.6841 4.28001ZM65.6141 8.60001C65.6141 8.77001 65.6841 8.85001 66.0541 8.98001L65.1141 9.46001C65.0741 9.48001 64.9941 9.50001 64.9441 9.43001C64.8841 9.33001 64.8141 9.21001 64.8141 8.91001V6.04001H61.6841C61.0841 6.04001 61.0141 5.83001 61.1041 5.73001L61.6841 5.12001C61.8141 5.40001 61.9041 5.46001 62.1041 5.46001H69.3141L69.1541 6.04001H65.6141V8.60001Z" fill="black"/>
</svg>
