<svg width="47" height="10" viewBox="0 0 47 10" fill="none" xmlns="http://www.w3.org/2000/svg">
<path d="M2.03008 8.66999C2.38008 8.56999 2.80008 8.55999 3.45008 8.55999H7.58008L7.42008 9.09999H3.33008C2.26008 9.09999 2.05008 9.11999 1.16008 9.26999C1.19008 9.05999 1.21008 8.68999 1.21008 8.47999V7.33999C1.21008 7.16999 1.15008 7.08999 0.780078 6.95999L1.72008 6.56999C1.85008 6.50999 2.03008 6.53999 2.03008 7.14999V8.66999ZM4.13008 4.25999C2.16008 4.25999 0.970078 3.53999 0.970078 2.31999C0.970078 1.09999 2.16008 0.379991 4.13008 0.379991C6.10008 0.379991 7.29008 1.09999 7.29008 2.31999C7.29008 3.53999 6.10008 4.25999 4.13008 4.25999ZM4.13008 3.69999C5.62008 3.69999 6.45008 3.20999 6.45008 2.31999C6.45008 1.41999 5.62008 0.939991 4.13008 0.939991C2.64008 0.939991 1.81008 1.41999 1.81008 2.31999C1.81008 3.20999 2.64008 3.69999 4.13008 3.69999ZM0.670078 5.73999C0.0700781 5.73999 7.81566e-05 5.53999 0.0900782 5.42999L0.530078 4.87999C0.670078 5.12999 0.800078 5.17999 1.00008 5.17999H8.22008L8.06008 5.73999H0.670078ZM14.8016 5.13999C14.6116 5.16999 14.4216 5.16999 14.2316 5.16999C13.1616 5.16999 12.4916 4.72999 12.4216 3.86999C11.3816 5.14999 10.6216 5.46999 9.34164 5.46999L9.59164 4.71999C10.7416 4.70999 11.4216 4.37999 12.7416 2.50999L13.2816 1.75999C13.3416 1.67999 13.4316 1.56999 13.5316 1.47999H10.4516C10.2716 1.47999 9.89164 1.53999 9.76164 1.58999L10.1316 0.869991H14.6716C14.4816 1.04999 14.2216 1.34999 14.0716 1.55999L13.5116 2.37999C13.2416 2.78999 12.9916 3.13999 12.7516 3.44999C12.7216 4.08999 13.3916 4.47999 14.3516 4.47999C14.5716 4.47999 14.7816 4.48999 15.0016 4.43999L14.8016 5.13999ZM16.3916 5.79999L15.5916 6.09999V0.829991C15.5916 0.659991 15.5216 0.579991 15.1616 0.449991L16.0816 0.0599911C16.2116 -8.70228e-06 16.3916 0.0299909 16.3916 0.639991V2.92999H17.8316L17.6916 3.42999H16.3916V5.79999ZM13.3816 9.45999C11.4216 9.45999 10.2316 8.79999 10.2316 7.71999C10.2316 6.61999 11.4216 5.97999 13.3816 5.97999C15.3416 5.97999 16.5316 6.61999 16.5316 7.71999C16.5316 8.79999 15.3416 9.45999 13.3816 9.45999ZM13.3816 8.89999C14.8816 8.89999 15.7116 8.48999 15.7116 7.71999C15.7116 6.92999 14.8816 6.53999 13.3816 6.53999C11.8816 6.53999 11.0516 6.92999 11.0516 7.71999C11.0516 8.48999 11.8816 8.89999 13.3816 8.89999ZM19.4632 6.82999L19.6932 6.27999H25.8632C25.8132 6.50999 25.7732 6.73999 25.7732 6.95999V8.57999C25.7732 8.74999 25.8432 8.82999 26.2032 8.95999L25.2832 9.43999C25.2332 9.45999 25.1532 9.47999 25.1132 9.40999C25.0432 9.30999 24.9732 9.18999 24.9732 8.88999V6.82999H19.4632ZM21.0332 1.45999C21.0532 1.34999 20.8332 1.13999 20.5732 1.11999L21.5832 0.749991C21.8132 0.669991 21.8732 0.759991 21.7332 1.32999L21.5932 1.97999L21.5532 2.29999C21.3932 3.71999 22.0132 4.56999 23.3732 4.56999C23.7232 4.56999 23.9332 4.54999 24.1832 4.49999L23.9832 5.23999C23.7932 5.28999 23.4832 5.29999 23.1032 5.28999C21.9432 5.25999 21.3032 4.53999 21.1732 3.37999C20.5832 4.83999 19.7032 5.53999 18.4032 5.53999L18.6232 4.72999C19.7632 4.68999 20.5432 3.91999 20.9032 2.15999L21.0332 1.45999ZM25.7732 5.46999L24.9732 5.76999V0.829991C24.9732 0.659991 24.9032 0.579991 24.5432 0.449991L25.4732 0.0599911C25.5932 0.00999117 25.7732 0.0299909 25.7732 0.639991V5.46999ZM30.073 1.62999C30.073 1.30999 30.013 1.06999 29.963 0.829991H34.673L34.513 1.38999H30.853V4.92999C31.223 4.66999 31.623 4.58999 32.263 4.58999H34.463C34.713 4.58999 34.993 4.54999 35.243 4.51999L35.053 5.12999H32.193C31.293 5.12999 30.503 5.26999 29.973 5.56999C30.043 5.30999 30.073 4.86999 30.073 4.52999V1.62999ZM36.753 6.99999L35.953 7.29999V0.829991C35.953 0.659991 35.883 0.579991 35.523 0.449991L36.443 0.0599911C36.573 -8.70228e-06 36.753 0.0299909 36.753 0.639991V3.46999H38.193L38.053 3.96999H36.753V6.99999ZM31.643 8.66999C31.993 8.56999 32.413 8.55999 33.063 8.55999H37.233L37.073 9.09999H32.943C31.873 9.09999 31.663 9.11999 30.773 9.26999C30.803 9.05999 30.823 8.68999 30.823 8.47999V7.05999C30.823 6.88999 30.763 6.80999 30.393 6.67999L31.333 6.28999C31.463 6.22999 31.643 6.25999 31.643 6.86999V8.66999ZM46.1645 4.25999C45.9345 4.27999 45.7445 4.28999 45.5645 4.28999C44.3445 4.28999 43.7245 3.66999 43.7145 2.57999C42.3045 3.88999 41.1645 4.33999 39.2345 4.35999L39.4645 3.59999C40.8845 3.63999 41.9345 3.35999 43.1345 2.34999L44.2645 1.38999C44.3645 1.29999 44.4645 1.24999 44.5445 1.20999H40.4745C40.2445 1.20999 39.9945 1.25999 39.7945 1.34999L40.0945 0.549991H45.9345C45.7745 0.679991 45.2945 1.10999 45.0945 1.28999L44.0545 2.26999C44.0945 3.25999 44.8045 3.60999 45.8145 3.60999C46.0245 3.60999 46.2445 3.59999 46.3745 3.57999L46.1645 4.25999ZM43.0945 8.57999C43.0945 8.74999 43.1645 8.82999 43.5345 8.95999L42.5945 9.43999C42.5545 9.45999 42.4745 9.47999 42.4245 9.40999C42.3645 9.30999 42.2945 9.18999 42.2945 8.88999V6.01999H39.1645C38.5645 6.01999 38.4945 5.80999 38.5845 5.70999L39.1645 5.09999C39.2945 5.37999 39.3845 5.43999 39.5845 5.43999H46.7945L46.6345 6.01999H43.0945V8.57999Z" fill="black"/>
</svg>
