<svg width="130" height="27" viewBox="0 0 130 27" fill="none" xmlns="http://www.w3.org/2000/svg">
<path d="M5.61284 23.9716C6.58055 23.6951 7.74181 23.6674 9.53899 23.6674H20.958L20.5156 25.1605H9.2072C6.24877 25.1605 5.66814 25.2158 3.20739 25.6305C3.29034 25.0499 3.34564 24.0269 3.34564 23.4462V20.2943C3.34564 19.8242 3.17974 19.603 2.15673 19.2436L4.75573 18.1653C5.11516 17.9994 5.61284 18.0823 5.61284 19.7689V23.9716ZM11.4191 11.7784C5.97228 11.7784 2.68206 9.78768 2.68206 6.41451C2.68206 3.04135 5.97228 1.05063 11.4191 1.05063C16.8659 1.05063 20.1562 3.04135 20.1562 6.41451C20.1562 9.78768 16.8659 11.7784 11.4191 11.7784ZM11.4191 10.2301C15.5388 10.2301 17.8337 8.87527 17.8337 6.41451C17.8337 3.92611 15.5388 2.59897 11.4191 2.59897C7.29943 2.59897 5.00457 3.92611 5.00457 6.41451C5.00457 8.87527 7.29943 10.2301 11.4191 10.2301ZM1.8526 15.8704C0.193663 15.8704 0.000120395 15.3175 0.24896 15.0133L1.46551 13.4926C1.8526 14.1839 2.21203 14.3221 2.76501 14.3221H22.7275L22.2851 15.8704H1.8526ZM40.9248 14.2115C40.3995 14.2944 39.8741 14.2944 39.3488 14.2944C36.3904 14.2944 34.5379 13.0779 34.3444 10.7001C31.4689 14.2391 29.3676 15.1239 25.8285 15.1239L26.5197 13.0502C29.6993 13.0226 31.5795 12.1102 35.2291 6.93984L36.7222 4.86618C36.8881 4.64499 37.1369 4.34085 37.4134 4.09201H28.8975C28.3998 4.09201 27.3492 4.2579 26.9898 4.39615L28.0128 2.40543H40.5654C40.04 2.90311 39.3212 3.73257 38.9064 4.3132L37.3581 6.58041C36.6116 7.71401 35.9203 8.68172 35.2568 9.53884C35.1738 11.3084 37.0263 12.3867 39.6806 12.3867C40.2889 12.3867 40.8695 12.4143 41.4778 12.2761L40.9248 14.2115ZM45.321 16.0363L43.1091 16.8658V2.29483C43.1091 1.8248 42.9155 1.60361 41.9201 1.24417L44.4638 0.165867C44.8233 -2.59707e-05 45.321 0.0829196 45.321 1.7695V8.1011H49.3024L48.9153 9.48354H45.321V16.0363ZM36.9986 26.1558C31.5795 26.1558 28.2892 24.331 28.2892 21.3449C28.2892 18.3035 31.5795 16.534 36.9986 16.534C42.4178 16.534 45.708 18.3035 45.708 21.3449C45.708 24.331 42.4178 26.1558 36.9986 26.1558ZM36.9986 24.6075C41.146 24.6075 43.4408 23.4739 43.4408 21.3449C43.4408 19.1607 41.146 18.0823 36.9986 18.0823C32.8513 18.0823 30.5565 19.1607 30.5565 21.3449C30.5565 23.4739 32.8513 24.6075 36.9986 24.6075ZM53.8135 18.8842L54.4494 17.3635H71.5088C71.3705 17.9994 71.2599 18.6353 71.2599 19.2436V23.7227C71.2599 24.1927 71.4535 24.4139 72.4488 24.7734L69.9051 26.1005C69.7669 26.1558 69.5457 26.2111 69.4351 26.0176C69.2416 25.7411 69.048 25.4093 69.048 24.5798V18.8842H53.8135ZM58.1544 4.03671C58.2097 3.73257 57.6014 3.15195 56.8825 3.09665L59.6751 2.07364C60.311 1.85245 60.4769 2.10129 60.0898 3.67727L59.7027 5.47445L59.5921 6.35922C59.1497 10.2854 60.864 12.6355 64.6242 12.6355C65.5919 12.6355 66.1725 12.5802 66.8638 12.442L66.3108 14.488C65.7855 14.6262 64.9283 14.6539 63.8777 14.6262C60.6704 14.5433 58.9009 12.5526 58.5414 9.3453C56.9102 13.382 54.4771 15.3175 50.8827 15.3175L51.491 13.0779C54.643 12.9673 56.7996 10.8383 57.7949 5.97213L58.1544 4.03671ZM71.2599 15.1239L69.048 15.9534V2.29483C69.048 1.8248 68.8545 1.60361 67.8591 1.24417L70.4305 0.165867C70.7623 0.0276226 71.2599 0.0829196 71.2599 1.7695V15.1239ZM83.1483 4.50674C83.1483 3.62198 82.9824 2.9584 82.8442 2.29483H95.8668L95.4244 3.84317H85.3049V13.6309C86.3279 12.912 87.4339 12.6908 89.2034 12.6908H95.2862C95.9774 12.6908 96.7516 12.5802 97.4428 12.4973L96.9174 14.1839H89.0099C86.5215 14.1839 84.3372 14.5709 82.8718 15.4004C83.0654 14.6815 83.1483 13.465 83.1483 12.5249V4.50674ZM101.618 19.3542L99.4058 20.1837V2.29483C99.4058 1.8248 99.2123 1.60361 98.2169 1.24417L100.761 0.165867C101.12 -2.59707e-05 101.618 0.0829196 101.618 1.7695V9.59414H105.599L105.212 10.9766H101.618V19.3542ZM87.4892 23.9716C88.4569 23.6951 89.6181 23.6674 91.4153 23.6674H102.945L102.503 25.1605H91.0835C88.1251 25.1605 87.5445 25.2158 85.0837 25.6305C85.1667 25.0499 85.222 24.0269 85.222 23.4462V19.5201C85.222 19.0501 85.0561 18.8289 84.0331 18.4694L86.6321 17.3911C86.9915 17.2252 87.4892 17.3082 87.4892 18.9948V23.9716ZM127.64 11.7784C127.004 11.8337 126.478 11.8613 125.981 11.8613C122.608 11.8613 120.893 10.1471 120.866 7.13339C116.967 10.7554 113.815 11.9996 108.479 12.0549L109.115 9.95357C113.041 10.0642 115.944 9.29 119.262 6.49746L122.386 3.84317C122.663 3.59433 122.939 3.45608 123.161 3.34549H111.907C111.272 3.34549 110.58 3.48373 110.027 3.73257L110.857 1.52066H127.004C126.561 1.8801 125.234 3.069 124.681 3.56668L121.806 6.27627C121.916 9.01351 123.879 9.98122 126.672 9.98122C127.253 9.98122 127.861 9.95357 128.22 9.89827L127.64 11.7784ZM119.151 23.7227C119.151 24.1927 119.345 24.4139 120.368 24.7734L117.769 26.1005C117.658 26.1558 117.437 26.2111 117.299 26.0176C117.133 25.7411 116.94 25.4093 116.94 24.5798V16.6446H108.285C106.627 16.6446 106.433 16.064 106.682 15.7875L108.285 14.1009C108.645 14.8751 108.894 15.041 109.447 15.041H129.382L128.939 16.6446H119.151V23.7227Z" fill="black"/>
</svg>
