<svg width="91" height="27" viewBox="0 0 91 27" fill="none" xmlns="http://www.w3.org/2000/svg">
<path d="M4.61712 23.7504C4.47888 23.8057 4.28533 23.861 4.14709 23.6951C3.9812 23.4186 3.78765 23.0868 3.78765 22.3126V3.87082C3.17938 4.09201 2.54345 4.2579 1.65869 4.2579H-0.000243978L1.05041 2.51602H3.9812C4.75536 2.51602 5.86132 2.23953 6.27605 2.04599C6.16546 2.29483 5.99956 2.9584 5.99956 3.89847V21.5108C5.99956 21.9532 6.13781 22.3403 6.85668 22.6721L4.61712 23.7504ZM16.7392 23.7227C12.9237 23.7227 10.1588 20.5707 10.1588 13.0502C10.1588 9.26235 11.0435 6.19332 11.9007 4.94912C13.0066 3.34549 14.9144 2.10129 17.2922 2.10129C21.1077 2.10129 23.8726 5.25326 23.8726 12.7738C23.8726 16.5617 22.9879 19.6307 22.1307 20.8749C21.0248 22.4785 19.117 23.7227 16.7392 23.7227ZM17.7346 21.9532C18.564 21.9532 19.5317 21.5385 20.14 20.8196C21.0524 19.7413 21.6607 16.8381 21.6607 13.2438C21.6607 6.52511 19.587 3.87082 16.2968 3.87082C15.4674 3.87082 14.4997 4.28555 13.8914 5.00442C12.979 6.08273 12.3707 8.98586 12.3707 12.5802C12.3707 19.2989 14.4444 21.9532 17.7346 21.9532ZM27.0799 18.5247C27.0799 15.8428 28.7388 13.8797 31.5314 12.8014C28.9047 11.4743 27.5499 9.70473 27.5499 7.57577C27.5499 4.39615 30.3148 2.07364 33.8262 2.07364C37.1994 2.07364 39.5495 4.14731 39.5495 7.16103C39.5495 9.51119 38.25 11.3084 35.7616 12.3867C38.8583 14.1009 40.0749 15.7598 40.0749 17.8888C40.0749 21.4279 37.31 23.7504 33.2732 23.7504C29.8171 23.7504 27.0799 21.4279 27.0799 18.5247ZM29.2365 18.0547C29.2365 20.3772 31.1996 22.1467 33.7433 22.1467C36.5082 22.1467 37.863 20.9578 37.863 18.3865C37.863 16.4787 36.3699 14.9027 32.8862 13.4097C30.536 14.1286 29.2365 15.7875 29.2365 18.0547ZM29.7618 7.07809C29.7618 8.81997 31.0613 10.1748 33.7986 11.419L34.6557 11.806C36.5635 10.866 37.3929 9.59414 37.3929 7.63107C37.3929 5.28091 35.7616 3.67728 33.3838 3.67728C31.1166 3.67728 29.7618 4.86618 29.7618 7.07809ZM49.8637 14.2115C45.9652 14.2115 43.1726 11.806 43.1726 7.82461C43.1726 3.84317 45.9652 1.43772 49.8637 1.43772C53.7621 1.43772 56.5547 3.84317 56.5547 7.82461C56.5547 11.806 53.7621 14.2115 49.8637 14.2115ZM49.8637 12.7461C52.4626 12.7461 54.3151 11.0319 54.3151 7.82461C54.3151 4.61734 52.4626 2.90311 49.8637 2.90311C47.2647 2.90311 45.4122 4.61734 45.4122 7.82461C45.4122 11.0319 47.2647 12.7461 49.8637 12.7461ZM63.3563 14.6539L61.1444 15.4833V10.783H57.3012L57.7436 9.51119H61.1444V5.97213H57.3012L57.7436 4.70028H61.1444V2.26718C61.1444 1.79715 60.9509 1.57596 59.9555 1.21652L62.5268 0.138218C62.8586 -2.63686e-05 63.3563 0.0552707 63.3563 1.74185V14.6539ZM48.813 24.1375C49.7254 24.0269 50.7208 23.9716 52.7391 23.9716H60.9785V18.3035H48.813V24.1375ZM46.2693 16.8658H63.384C63.2181 17.4188 63.1351 18.027 63.1351 18.7459V23.9439C63.5499 23.9163 63.9369 23.861 64.2411 23.778L63.7157 25.4646H52.4626C50.0295 25.4646 47.8176 25.6581 46.2969 25.9899C46.4628 25.5199 46.6011 24.6075 46.6011 23.8057V19.0777C46.6011 18.1376 46.5181 17.5017 46.2693 16.8658ZM88.3829 11.7507C87.7469 11.806 87.2216 11.8337 86.7239 11.8337C83.3508 11.8337 81.6365 10.1195 81.6089 7.10574C77.7104 10.7277 74.5584 11.9719 69.2222 12.0272L69.8581 9.92592C73.7843 10.0365 76.6874 9.26235 80.0053 6.46981L83.1296 3.81552C83.4061 3.56668 83.6826 3.42844 83.9038 3.31784H72.6507C72.0147 3.31784 71.3235 3.45608 70.7705 3.70492L71.6 1.49301H87.7469C87.3046 1.85245 85.9774 3.04135 85.4244 3.53903L82.549 6.24862C82.6596 8.98586 84.6226 9.95357 87.4152 9.95357C87.9958 9.95357 88.6041 9.92592 88.9635 9.87062L88.3829 11.7507ZM79.8947 23.6951C79.8947 24.1651 80.0882 24.3863 81.1112 24.7457L78.5122 26.0729C78.4016 26.1282 78.1804 26.1835 78.0422 25.9899C77.8763 25.7134 77.6828 25.3816 77.6828 24.5522V16.617H69.0287C67.3697 16.617 67.1762 16.0363 67.425 15.7598L69.0287 14.0733C69.3881 14.8474 69.6369 15.0133 70.1899 15.0133H90.1248L89.6824 16.617H79.8947V23.6951Z" fill="#707070"/>
</svg>
