<svg width="33" height="10" viewBox="0 0 33 10" fill="none" xmlns="http://www.w3.org/2000/svg">
<path d="M1.67004 8.59001C1.62004 8.61001 1.55004 8.63001 1.50004 8.57001C1.44004 8.47001 1.37004 8.35001 1.37004 8.07001V1.40001C1.15004 1.48001 0.920039 1.54001 0.600039 1.54001H3.90606e-05L0.380039 0.910012H1.44004C1.72004 0.910012 2.12004 0.810012 2.27004 0.740012C2.23004 0.830012 2.17004 1.07001 2.17004 1.41001V7.78001C2.17004 7.94001 2.22004 8.08001 2.48004 8.20001L1.67004 8.59001ZM6.05434 8.58001C4.67434 8.58001 3.67434 7.44001 3.67434 4.72001C3.67434 3.35001 3.99434 2.24001 4.30434 1.79001C4.70434 1.21001 5.39434 0.760012 6.25434 0.760012C7.63434 0.760012 8.63434 1.90001 8.63434 4.62001C8.63434 5.99001 8.31434 7.10001 8.00434 7.55001C7.60434 8.13001 6.91434 8.58001 6.05434 8.58001ZM6.41434 7.94001C6.71434 7.94001 7.06434 7.79001 7.28434 7.53001C7.61434 7.14001 7.83434 6.09001 7.83434 4.79001C7.83434 2.36001 7.08434 1.40001 5.89434 1.40001C5.59434 1.40001 5.24434 1.55001 5.02434 1.81001C4.69434 2.20001 4.47434 3.25001 4.47434 4.55001C4.47434 6.98001 5.22434 7.94001 6.41434 7.94001ZM9.79434 6.70001C9.79434 5.73001 10.3943 5.02001 11.4043 4.63001C10.4543 4.15001 9.96434 3.51001 9.96434 2.74001C9.96434 1.59001 10.9643 0.750012 12.2343 0.750012C13.4543 0.750012 14.3043 1.50001 14.3043 2.59001C14.3043 3.44001 13.8343 4.09001 12.9343 4.48001C14.0543 5.10001 14.4943 5.70001 14.4943 6.47001C14.4943 7.75001 13.4943 8.59001 12.0343 8.59001C10.7843 8.59001 9.79434 7.75001 9.79434 6.70001ZM10.5743 6.53001C10.5743 7.37001 11.2843 8.01001 12.2043 8.01001C13.2043 8.01001 13.6943 7.58001 13.6943 6.65001C13.6943 5.96001 13.1543 5.39001 11.8943 4.85001C11.0443 5.11001 10.5743 5.71001 10.5743 6.53001ZM10.7643 2.56001C10.7643 3.19001 11.2343 3.68001 12.2243 4.13001L12.5343 4.27001C13.2243 3.93001 13.5243 3.47001 13.5243 2.76001C13.5243 1.91001 12.9343 1.33001 12.0743 1.33001C11.2543 1.33001 10.7643 1.76001 10.7643 2.56001ZM18.0347 5.14001C16.6247 5.14001 15.6147 4.27001 15.6147 2.83001C15.6147 1.39001 16.6247 0.520012 18.0347 0.520012C19.4447 0.520012 20.4547 1.39001 20.4547 2.83001C20.4547 4.27001 19.4447 5.14001 18.0347 5.14001ZM18.0347 4.61001C18.9747 4.61001 19.6447 3.99001 19.6447 2.83001C19.6447 1.67001 18.9747 1.05001 18.0347 1.05001C17.0947 1.05001 16.4247 1.67001 16.4247 2.83001C16.4247 3.99001 17.0947 4.61001 18.0347 4.61001ZM22.9147 5.30001L22.1147 5.60001V3.90001H20.7247L20.8847 3.44001H22.1147V2.16001H20.7247L20.8847 1.70001H22.1147V0.820012C22.1147 0.650012 22.0447 0.570012 21.6847 0.440012L22.6147 0.0500119C22.7347 1.19209e-05 22.9147 0.0200117 22.9147 0.630012V5.30001ZM17.6547 8.73001C17.9847 8.69001 18.3447 8.67001 19.0747 8.67001H22.0547V6.62001H17.6547V8.73001ZM16.7347 6.10001H22.9247C22.8647 6.30001 22.8347 6.52001 22.8347 6.78001V8.66001C22.9847 8.65001 23.1247 8.63001 23.2347 8.60001L23.0447 9.21001H18.9747C18.0947 9.21001 17.2947 9.28001 16.7447 9.40001C16.8047 9.23001 16.8547 8.90001 16.8547 8.61001V6.90001C16.8547 6.56001 16.8247 6.33001 16.7347 6.10001ZM31.9663 4.25001C31.7363 4.27001 31.5463 4.28001 31.3663 4.28001C30.1463 4.28001 29.5263 3.66001 29.5163 2.57001C28.1063 3.88001 26.9663 4.33001 25.0363 4.35001L25.2663 3.59001C26.6863 3.63001 27.7363 3.35001 28.9363 2.34001L30.0663 1.38001C30.1663 1.29001 30.2663 1.24001 30.3463 1.20001H26.2763C26.0463 1.20001 25.7963 1.25001 25.5963 1.34001L25.8963 0.540012H31.7363C31.5763 0.670012 31.0963 1.10001 30.8963 1.28001L29.8563 2.26001C29.8963 3.25001 30.6063 3.60001 31.6163 3.60001C31.8263 3.60001 32.0463 3.59001 32.1763 3.57001L31.9663 4.25001ZM28.8963 8.57001C28.8963 8.74001 28.9663 8.82001 29.3363 8.95001L28.3963 9.43001C28.3563 9.45001 28.2763 9.47001 28.2263 9.40001C28.1663 9.30001 28.0963 9.18001 28.0963 8.88001V6.01001H24.9663C24.3663 6.01001 24.2963 5.80001 24.3863 5.70001L24.9663 5.09001C25.0963 5.37001 25.1863 5.43001 25.3863 5.43001H32.5963L32.4363 6.01001H28.8963V8.57001Z" fill="#707070"/>
</svg>
