<svg width="55" height="16" viewBox="0 0 55 16" fill="none" xmlns="http://www.w3.org/2000/svg">
<path d="M4.56011 15.936C3.84011 15.936 3.09611 15.88 2.32811 15.768C1.57611 15.656 0.80011 15.488 0.000109494 15.264L0.45611 14.28C1.17611 14.472 1.92811 14.616 2.71211 14.712C3.49611 14.808 4.29611 14.856 5.11211 14.856C5.60811 14.856 6.09611 14.84 6.57611 14.808C7.07211 14.776 7.57611 14.728 8.08811 14.664L7.48811 14.856C7.87211 14.664 8.20811 14.432 8.49611 14.16C8.80011 13.872 9.04011 13.56 9.21611 13.224C9.39211 12.888 9.48011 12.544 9.48011 12.192C9.48011 11.616 9.25611 11.12 8.80811 10.704C8.37611 10.288 7.81611 9.904 7.12811 9.552C6.44011 9.184 5.70411 8.824 4.92011 8.472C4.15211 8.12 3.42411 7.736 2.73611 7.32C2.04811 6.888 1.48011 6.392 1.03211 5.832C0.60011 5.272 0.38411 4.608 0.38411 3.84C0.38411 3.04 0.62411 2.352 1.10411 1.776C1.58411 1.2 2.26411 0.76 3.14411 0.456C4.02411 0.152 5.06411 4.76837e-07 6.26411 4.76837e-07C6.92011 4.76837e-07 7.56811 0.0400004 8.20811 0.12C8.86411 0.2 9.51211 0.336 10.1521 0.528001L9.84011 1.488C9.15211 1.344 8.46411 1.24 7.77611 1.176C7.08811 1.096 6.40811 1.056 5.73611 1.056C5.19211 1.056 4.66411 1.08 4.15211 1.128C3.64011 1.176 3.14411 1.256 2.66411 1.368L3.26411 1.176C2.78411 1.416 2.39211 1.752 2.08811 2.184C1.80011 2.6 1.65611 3.064 1.65611 3.576C1.65611 4.216 1.87211 4.768 2.30411 5.232C2.75211 5.696 3.32011 6.112 4.00811 6.48C4.69611 6.832 5.42411 7.184 6.19211 7.536C6.97611 7.888 7.71211 8.264 8.40011 8.664C9.10411 9.064 9.67211 9.528 10.1041 10.056C10.5521 10.584 10.7761 11.224 10.7761 11.976C10.7761 12.776 10.5121 13.472 9.98411 14.064C9.47211 14.656 8.75211 15.12 7.82411 15.456C6.89611 15.776 5.80811 15.936 4.56011 15.936ZM1.44011 15.264H0.000109494L0.12011 10.824H0.55211L1.44011 15.264ZM9.55211 4.776L8.73611 0.504001L10.1521 0.528001L10.0081 4.776H9.55211ZM27.5092 14.904C27.8132 14.952 28.1092 15.008 28.3972 15.072C28.6852 15.136 28.9732 15.208 29.2612 15.288V15.72H23.4532V15.264L26.0452 14.88L20.9812 0.720001H21.3172L16.0612 14.856C16.5732 14.904 17.0772 14.968 17.5732 15.048C18.0692 15.128 18.5732 15.208 19.0852 15.288V15.72H13.2772V15.264L14.9092 14.856L20.5252 0.168001H22.0612L27.5092 14.904ZM17.3572 10.272V9.336H24.9892V10.272H17.3572ZM43.5625 14.76L45.9385 15.24V15.72H42.3145L41.4985 11.352C41.3225 10.376 41.0105 9.688 40.5625 9.288C40.1145 8.888 39.4185 8.688 38.4745 8.688H34.5625V7.704H39.4825C40.4905 7.256 41.2265 6.752 41.6905 6.192C42.1545 5.632 42.3865 4.976 42.3865 4.224C42.3865 3.264 42.0745 2.52 41.4505 1.992C40.8265 1.448 39.9705 1.176 38.8825 1.176H35.0905V14.808L37.8025 15.24V15.72H30.9385V15.312C31.2105 15.184 31.5705 15.08 32.0185 15C32.4665 14.904 33.0105 14.84 33.6505 14.808L33.8665 1.104L30.9385 0.624001V0.168001H39.0985C40.4905 0.168001 41.6105 0.520001 42.4585 1.224C43.3065 1.912 43.7305 2.816 43.7305 3.936C43.7305 4.912 43.4105 5.784 42.7705 6.552C42.1305 7.304 41.2905 7.832 40.2505 8.136C40.9705 8.296 41.5385 8.632 41.9545 9.144C42.3705 9.656 42.6745 10.384 42.8665 11.328L43.5625 14.76ZM47.8135 15.72V15.312C48.2935 15.168 48.7575 15.056 49.2055 14.976C49.6535 14.896 50.0935 14.84 50.5255 14.808L50.7415 1.104L47.8135 0.624001V0.168001H54.6535V0.576C54.2535 0.688001 53.8215 0.792001 53.3575 0.888C52.9095 0.968 52.4455 1.032 51.9655 1.08V14.808L54.6535 15.24V15.72H47.8135Z" fill="black"/>
</svg>
