<svg width="122" height="49" viewBox="0 0 122 49" fill="none" xmlns="http://www.w3.org/2000/svg">
<path d="M29.1608 35.8355C29.1608 38.6652 28.4479 41.0413 27.0223 42.9638C25.5967 44.8646 23.6634 46.3011 21.2225 47.2731C18.7816 48.2235 16.0167 48.6988 12.9278 48.6988C11.0054 48.6988 9.25573 48.6015 7.67888 48.4071C6.12363 48.2343 4.70879 47.9967 3.43434 47.6943C2.1815 47.3919 1.03667 47.0463 -0.000165053 46.6575V43.3202C1.68469 43.9682 3.62875 44.5406 5.83202 45.0374C8.05689 45.5127 10.4762 45.7503 13.0899 45.7503C15.5523 45.7503 17.734 45.3938 19.6349 44.681C21.5573 43.9682 23.0694 42.8882 24.171 41.4409C25.2726 39.9937 25.8235 38.1684 25.8235 35.9651C25.8235 34.0211 25.359 32.4334 24.4302 31.2022C23.523 29.9494 22.1513 28.8801 20.3153 27.9945C18.4792 27.0873 16.168 26.1692 13.3815 25.2404C11.4374 24.5708 9.66614 23.8688 8.06769 23.1343C6.49084 22.3783 5.1408 21.5143 4.01756 20.5423C2.89433 19.5486 2.0303 18.3606 1.42548 16.9781C0.842262 15.5741 0.550653 13.9216 0.550653 12.0208C0.550653 9.4071 1.20947 7.21463 2.52712 5.44337C3.86636 3.65052 5.67002 2.30047 7.93809 1.39324C10.2278 0.464415 12.7982 9.68575e-08 15.6495 9.68575e-08C17.9176 9.68575e-08 20.0669 0.216007 22.0973 0.648021C24.1494 1.05843 26.1259 1.68485 28.0267 2.52728L26.8603 5.41097C24.9594 4.59015 23.0586 3.98533 21.1577 3.59651C19.2568 3.2077 17.3776 3.0133 15.5199 3.0133C13.2951 3.0133 11.3078 3.34811 9.55814 4.01773C7.83008 4.66575 6.45844 5.64858 5.44321 6.96622C4.42798 8.28386 3.92036 9.94712 3.92036 11.956C3.92036 14.0296 4.38477 15.7037 5.3136 16.9781C6.26403 18.2526 7.60328 19.311 9.33133 20.1534C11.081 20.9959 13.1439 21.8167 15.5199 22.6159C18.328 23.5664 20.7473 24.5708 22.7778 25.6292C24.8082 26.6661 26.3743 27.9837 27.4759 29.5821C28.5991 31.1806 29.1608 33.2651 29.1608 35.8355ZM68.9492 48.0507L62.5014 31.2994H42.6072L36.0298 48.0507H32.6277L51.2583 0.518417H54.304L72.4485 48.0507H68.9492ZM61.4322 28.2861L54.8872 10.5303C54.7144 10.0767 54.4984 9.4935 54.2392 8.78068C54.0016 8.06786 53.7423 7.31183 53.4615 6.51261C53.2023 5.71338 52.9431 4.95736 52.6839 4.24454C52.4679 5.00056 52.2303 5.75658 51.9711 6.51261C51.7119 7.26863 51.4635 8.00306 51.2259 8.71588C50.9883 9.4071 50.7615 10.0335 50.5454 10.5951L43.7412 28.2861H61.4322ZM90.6579 0.680422C94.4164 0.680422 97.5485 1.09083 100.054 1.91166C102.582 2.73249 104.482 4.08253 105.757 5.96179C107.031 7.84105 107.668 10.3791 107.668 13.576C107.668 15.9737 107.226 18.0366 106.34 19.7646C105.476 21.4711 104.277 22.8751 102.744 23.9768C101.21 25.0784 99.4386 25.9208 97.4297 26.504L110.423 48.0507H106.47L94.2544 27.4437H82.4929V48.0507H79.1556V0.680422H90.6579ZM90.3339 3.62892H82.4929V24.4952H91.9216C95.7881 24.4952 98.8014 23.5664 100.961 21.7087C103.143 19.851 104.234 17.1833 104.234 13.7056C104.234 9.88232 103.089 7.24703 100.799 5.79978C98.5098 4.35254 95.0213 3.62892 90.3339 3.62892ZM118.62 48.0507V0.680422H121.957V48.0507H118.62Z" fill="black"/>
</svg>
